Coordinates
version=1
nRows=10
nColumns=40
inDegrees=yes

Units are S.I. units (second, meters, Newtons, ...)
If the header above contains a line with 'inDegrees', this indicates whether rotational values are in degrees (yes) or radians (no).

endheader
time	pelvis_tilt	pelvis_list	pelvis_rotation	pelvis_tx	pelvis_ty	pelvis_tz	hip_flexion_r	hip_adduction_r	hip_rotation_r	knee_angle_r	knee_angle_r_beta	ankle_angle_r	subtalar_angle_r	mtp_angle_r	hip_flexion_l	hip_adduction_l	hip_rotation_l	knee_angle_l	knee_angle_l_beta	ankle_angle_l	subtalar_angle_l	mtp_angle_l	lumbar_extension	lumbar_bending	lumbar_rotation	arm_flex_r	arm_add_r	arm_rot_r	elbow_flex_r	pro_sup_r	wrist_flex_r	wrist_dev_r	arm_flex_l	arm_add_l	arm_rot_l	elbow_flex_l	pro_sup_l	wrist_flex_l	wrist_dev_l
      2.70000000	     18.57232641	     -9.18013187	     -5.66398477	     -0.27306640	      0.99100216	     -1.03844673	     21.10624236	      5.89564785	     -4.01269858	      5.13474368	      0.08961818	     -3.48021157	      0.00000000	      0.00000000	      2.16853781	     -9.33746299	    -15.25152608	     50.54441223	      0.88216641	     16.46030049	      0.00000000	      0.00000000	    -21.32459051	      1.92481321	      8.93018947	     82.95182613	    -24.26674032	     52.24419386	     39.78488866	     86.33273225	      0.00000000	      0.00000000	     88.29937105	    -22.20114279	     66.00680409	     42.71932557	     86.80073029	      0.00000000	      0.00000000
      2.70500000	     18.58333167	     -9.18241603	     -5.62762660	     -0.27336615	      0.99018865	     -1.03851214	     21.17361901	      5.86667990	     -4.01478928	      5.14254033	      0.08975426	     -3.43489675	      0.00000000	      0.00000000	      2.29419216	     -9.41276135	    -15.28469068	     50.80025613	      0.88663173	     16.55719885	      0.00000000	      0.00000000	    -21.38829555	      1.91644037	      8.92188564	     83.06628035	    -24.29213862	     52.39690175	     39.81739783	     86.21108126	      0.00000000	      0.00000000	     88.37486841	    -22.17743845	     66.08325235	     42.69961509	     86.81005063	      0.00000000	      0.00000000
      2.71000000	     18.62530353	     -9.23438454	     -5.57185183	     -0.27362885	      0.98930410	     -1.03857364	     21.18814063	      5.88271365	     -4.08504866	      5.09752457	      0.08896859	     -3.43185664	      0.00000000	      0.00000000	      2.39883195	     -9.55651984	    -15.31178855	     51.09519776	      0.89177943	     16.66769516	      0.00000000	      0.00000000	    -21.48918021	      1.97750086	      8.86095559	     83.19993054	    -24.17952483	     52.54268393	     39.70830408	     86.24538884	      0.00000000	      0.00000000	     88.43016888	    -22.25003400	     66.11253570	     42.76857715	     86.86401000	      0.00000000	      0.00000000
      2.71500000	     18.62208813	     -9.17042942	     -5.55304076	     -0.27405472	      0.98852041	     -1.03862852	     21.28204340	      5.79152083	     -4.16813116	      5.08945327	      0.08882772	     -3.41003672	      0.00000000	      0.00000000	      2.54792938	     -9.55944226	    -15.34576172	     51.33779525	      0.89601356	     16.73415677	      0.00000000	      0.00000000	    -21.54366735	      1.89561229	      8.83946879	     83.26977527	    -24.13143409	     52.54631212	     39.62836679	     86.12039625	      0.00000000	      0.00000000	     88.53024230	    -22.26183550	     66.19677362	     42.79546481	     86.78205385	      0.00000000	      0.00000000
      2.72000000	     18.67926731	     -9.11767324	     -5.53214703	     -0.27440319	      0.98779972	     -1.03864069	     21.31974714	      5.70626627	     -4.13222572	      5.12344628	      0.08942101	     -3.36464248	      0.00000000	      0.00000000	      2.60306614	     -9.57733218	    -15.40800625	     51.53049447	      0.89937679	     16.76914906	      0.00000000	      0.00000000	    -21.64781768	      1.81739670	      8.83363996	     83.36687491	    -24.13303309	     52.73250814	     39.60699773	     86.16846818	      0.00000000	      0.00000000	     88.58538869	    -22.20423377	     66.11409959	     42.71083690	     86.82692333	      0.00000000	      0.00000000
      2.72500000	     18.71358401	     -9.05917613	     -5.55570291	     -0.27492839	      0.98704956	     -1.03862079	     21.37650209	      5.63601491	     -4.11783993	      5.12120960	      0.08938197	     -3.37442547	      0.00000000	      0.00000000	      2.71464126	     -9.59103678	    -15.49614757	     51.78413845	      0.90380372	     16.80848946	      0.00000000	      0.00000000	    -21.75823548	      1.72655675	      8.82847044	     83.47449563	    -24.01322788	     52.65999146	     39.45168466	     86.27540318	      0.00000000	      0.00000000	     88.64953670	    -22.25228464	     66.12632160	     42.76466580	     86.81796064	      0.00000000	      0.00000000
      2.73000000	     18.65951811	     -9.05164830	     -5.57133827	     -0.27529207	      0.98616600	     -1.03853430	     21.53618141	      5.61805323	     -4.17410450	      5.14725060	      0.08983647	     -3.39375763	      0.00000000	      0.00000000	      2.90457513	     -9.68925520	    -15.59196448	     52.03519511	      0.90818548	     16.87487978	      0.00000000	      0.00000000	    -21.75868967	      1.69163952	      8.82096253	     83.52260555	    -23.99238279	     52.73736099	     39.52134083	     85.93230810	      0.00000000	      0.00000000	     88.73606494	    -22.29880019	     66.27783076	     42.80686248	     86.62407812	      0.00000000	      0.00000000
      2.73500000	     18.69555266	     -8.96888993	     -5.60174228	     -0.27571437	      0.98536793	     -1.03846060	     21.59557366	      5.53405396	     -4.20305062	      5.13973037	      0.08970522	     -3.38364859	      0.00000000	      0.00000000	      2.99948919	     -9.68887107	    -15.72164685	     52.28608370	      0.91256431	     16.94375658	      0.00000000	      0.00000000	    -21.85943577	      1.56575409	      8.83469049	     83.62913032	    -23.95685031	     52.81083707	     39.47673286	     85.94521262	      0.00000000	      0.00000000	     88.80745437	    -22.31013278	     66.24193836	     42.83356417	     86.63441278	      0.00000000	      0.00000000
      2.74000000	     18.82199649	     -9.00693513	     -5.56904181	     -0.27581369	      0.98471580	     -1.03839814	     21.49556591	      5.54318581	     -4.28198481	      5.07406728	      0.08855918	     -3.33762084	      0.00000000	      0.00000000	      2.95775240	     -9.81132145	    -15.79607057	     52.50458481	      0.91637788	     17.00977220	      0.00000000	      0.00000000	    -22.02865489	      1.58325937	      8.81423293	     83.74227614	    -23.84025727	     52.79646540	     39.30909146	     86.28821074	      0.00000000	      0.00000000	     88.80663519	    -22.34706119	     66.06255021	     42.85001070	     86.80912602	      0.00000000	      0.00000000
      2.74500000	     18.81710400	     -9.03066092	     -5.48633714	     -0.27643876	      0.98375862	     -1.03852948	     21.61967136	      5.50832130	     -4.38496769	      5.11821439	      0.08932969	     -3.42585233	      0.00000000	      0.00000000	      3.17370794	     -9.92297079	    -15.75414326	     52.82578815	      0.92198393	     17.05434308	      0.00000000	      0.00000000	    -22.10772835	      1.61362185	      8.77493063	     83.86838071	    -23.83205264	     52.85587289	     39.27207795	     86.25573240	      0.00000000	      0.00000000	     88.89687207	    -22.27180202	     66.04371535	     42.74962180	     86.76123375	      0.00000000	      0.00000000
